<?xml version="1.0" encoding="utf-8" ?>
<svg baseProfile="full" height="200" version="1.1" viewBox="0 0 267 200" width="267" xmlns="http://www.w3.org/2000/svg" xmlns:ev="http://www.w3.org/2001/xml-events" xmlns:xlink="http://www.w3.org/1999/xlink"><defs /><rect fill="black" height="200" width="267" x="0" y="0" /><path d="M 66.00,122.50 L 65.00,122.50 L 64.00,122.50 L 63.00,122.50 L 62.00,122.50 L 61.00,122.50 L 60.00,122.50 L 59.50,122.00 L 59.50,121.00 L 60.00,120.50 L 60.50,120.00 L 60.50,119.00 L 61.00,118.50 L 61.50,118.00 L 62.00,117.50 L 62.50,117.00 L 62.50,116.00 L 63.00,115.50 L 63.50,115.00 L 64.00,114.50 L 64.50,114.00 L 65.00,113.50 L 65.50,113.00 L 66.00,112.50 L 66.50,112.00 L 67.00,111.50 L 67.50,111.00 L 68.00,110.50 L 68.50,110.00 L 69.00,109.50 L 69.50,109.00 L 70.00,108.50 L 70.50,108.00 L 71.00,107.50 L 71.50,107.00 L 72.00,106.50 L 73.00,106.50 L 73.50,106.00 L 74.00,105.50 L 74.50,105.00 L 75.00,104.50 L 76.00,104.50 L 76.50,104.00 L 77.00,103.50 L 78.00,103.50 L 78.50,103.00 L 79.00,102.50 L 80.00,102.50 L 80.50,102.00 L 81.00,101.50 L 82.00,101.50 L 82.50,101.00 L 83.00,100.50 L 84.00,100.50 L 85.00,100.50 L 85.50,100.00 L 86.00,99.50 L 87.00,99.50 L 88.00,99.50 L 88.50,99.00 L 89.00,98.50 L 90.00,98.50 L 91.00,98.50 L 92.00,98.50 L 92.50,98.00 L 92.00,97.50 L 91.50,97.00 L 91.50,96.00 L 91.00,95.50 L 90.50,95.00 L 90.00,94.50 L 89.50,94.00 L 89.50,93.00 L 89.00,92.50 L 88.50,92.00 L 88.50,91.00 L 88.00,90.50 L 87.50,90.00 L 87.50,89.00 L 87.00,88.50 L 86.00,88.50 L 85.50,89.00 L 85.50,90.00 L 85.00,90.50 L 84.50,91.00 L 84.50,92.00 L 84.00,92.50 L 83.50,93.00 L 83.00,93.50 L 82.50,94.00 L 82.00,94.50 L 81.00,94.50 L 80.50,95.00 L 80.00,95.50 L 79.00,95.50 L 78.50,96.00 L 78.00,96.50 L 77.00,96.50 L 76.50,97.00 L 76.00,97.50 L 75.00,97.50 L 74.50,98.00 L 74.00,98.50 L 73.50,98.00 L 73.50,97.00 L 74.00,96.50 L 74.50,96.00 L 75.00,95.50 L 75.50,95.00 L 75.50,94.00 L 76.00,93.50 L 76.50,93.00 L 76.50,92.00 L 77.00,91.50 L 77.50,91.00 L 78.00,90.50 L 78.50,90.00 L 78.50,89.00 L 79.00,88.50 L 79.50,88.00 L 79.50,87.00 L 80.00,86.50 L 80.50,86.00 L 80.50,85.00 L 81.00,84.50 L 81.50,84.00 L 82.00,83.50 L 82.50,83.00 L 82.50,82.00 L 83.00,81.50 L 83.50,81.00 L 83.50,80.00 L 84.00,79.50 L 84.50,79.00 L 84.50,78.00 L 85.00,77.50 L 85.50,77.00 L 86.00,76.50 L 86.50,77.00 L 86.50,78.00 L 87.00,78.50 L 87.50,79.00 L 88.00,79.50 L 88.50,80.00 L 88.50,81.00 L 89.00,81.50 L 89.50,82.00 L 89.50,83.00 L 90.00,83.50 L 90.50,84.00 L 91.00,84.50 L 91.50,85.00 L 91.50,86.00 L 92.00,86.50 L 92.50,87.00 L 92.50,88.00 L 93.00,88.50 L 93.50,89.00 L 94.00,89.50 L 94.50,90.00 L 94.50,91.00 L 95.00,91.50 L 95.50,92.00 L 95.50,93.00 L 96.00,93.50 L 96.50,94.00 L 96.50,95.00 L 97.00,95.50 L 97.50,96.00 L 98.00,96.50 L 98.50,97.00 L 98.50,98.00 L 99.00,98.50 L 99.50,99.00 L 99.50,100.00 L 100.00,100.50 L 100.50,101.00 L 101.00,101.50 L 101.50,102.00 L 101.50,103.00 L 102.00,103.50 L 102.50,104.00 L 102.00,104.50 L 101.00,104.50 L 100.00,104.50 L 99.00,104.50 L 98.00,104.50 L 97.00,104.50 L 96.00,104.50 L 95.00,104.50 L 94.00,104.50 L 93.00,104.50 L 92.00,104.50 L 91.50,105.00 L 91.00,105.50 L 90.00,105.50 L 89.00,105.50 L 88.00,105.50 L 87.50,106.00 L 87.00,106.50 L 86.00,106.50 L 85.50,107.00 L 85.00,107.50 L 84.00,107.50 L 83.50,108.00 L 83.00,108.50 L 82.00,108.50 L 81.50,109.00 L 81.00,109.50 L 80.00,109.50 L 79.50,110.00 L 79.00,110.50 L 78.00,110.50 L 77.50,111.00 L 77.00,111.50 L 76.50,112.00 L 76.00,112.50 L 75.50,113.00 L 75.00,113.50 L 74.00,113.50 L 73.50,114.00 L 73.00,114.50 L 72.50,115.00 L 72.00,115.50 L 71.50,116.00 L 71.00,116.50 L 70.50,117.00 L 70.00,117.50 L 69.50,118.00 L 69.50,119.00 L 69.00,119.50 L 68.50,120.00 L 68.00,120.50 L 67.50,121.00 L 67.00,121.50 L 66.50,122.00 L 66.00,122.50 Z" fill="white" stroke="none" /><path d="M 132.00,91.50 L 131.50,91.00 L 131.00,90.50 L 130.50,90.00 L 130.50,89.00 L 130.00,88.50 L 129.50,88.00 L 129.00,87.50 L 128.00,87.50 L 127.00,87.50 L 126.00,87.50 L 125.00,87.50 L 124.00,87.50 L 123.00,87.50 L 122.00,87.50 L 121.50,88.00 L 121.50,89.00 L 121.00,89.50 L 120.50,89.00 L 120.50,88.00 L 120.50,87.00 L 121.00,86.50 L 121.50,86.00 L 121.50,85.00 L 122.00,84.50 L 122.50,84.00 L 122.50,83.00 L 122.50,82.00 L 123.00,81.50 L 123.50,81.00 L 123.50,80.00 L 124.00,79.50 L 124.50,79.00 L 124.50,78.00 L 125.00,77.50 L 126.00,77.50 L 126.50,78.00 L 127.00,78.50 L 127.50,79.00 L 127.50,80.00 L 128.00,80.50 L 128.50,81.00 L 128.50,82.00 L 129.00,82.50 L 129.50,83.00 L 129.50,84.00 L 129.50,85.00 L 130.00,85.50 L 130.50,86.00 L 130.50,87.00 L 131.00,87.50 L 131.50,88.00 L 131.50,89.00 L 132.00,89.50 L 132.50,90.00 L 132.50,91.00 L 132.00,91.50 Z" fill="white" stroke="none" /><path d="M 144.00,80.50 L 143.50,80.00 L 143.00,79.50 L 142.50,79.00 L 142.00,78.50 L 141.00,78.50 L 140.00,78.50 L 139.00,78.50 L 138.00,78.50 L 137.50,79.00 L 137.00,79.50 L 136.00,79.50 L 135.50,79.00 L 136.00,78.50 L 136.50,78.00 L 137.00,77.50 L 138.00,77.50 L 139.00,77.50 L 140.00,77.50 L 141.00,77.50 L 142.00,77.50 L 143.00,77.50 L 143.50,78.00 L 144.00,78.50 L 144.50,79.00 L 144.50,80.00 L 144.00,80.50 Z" fill="white" stroke="none" /><path d="M 149.00,91.50 L 148.50,91.00 L 148.50,90.00 L 148.50,89.00 L 148.50,88.00 L 148.50,87.00 L 148.50,86.00 L 148.50,85.00 L 148.50,84.00 L 148.50,83.00 L 148.50,82.00 L 148.50,81.00 L 148.50,80.00 L 148.50,79.00 L 148.50,78.00 L 149.00,77.50 L 150.00,77.50 L 151.00,77.50 L 152.00,77.50 L 153.00,77.50 L 154.00,77.50 L 155.00,77.50 L 156.00,77.50 L 157.00,77.50 L 157.50,78.00 L 158.00,78.50 L 158.50,79.00 L 159.00,79.50 L 159.50,80.00 L 159.50,81.00 L 159.50,82.00 L 159.50,83.00 L 159.50,84.00 L 159.00,84.50 L 158.50,85.00 L 158.00,85.50 L 157.50,86.00 L 157.00,86.50 L 156.00,86.50 L 155.00,86.50 L 154.00,86.50 L 153.00,86.50 L 152.00,86.50 L 151.00,86.50 L 150.00,86.50 L 149.50,87.00 L 149.50,88.00 L 149.50,89.00 L 149.50,90.00 L 149.50,91.00 L 149.00,91.50 Z" fill="white" stroke="none" /><path d="M 163.00,91.50 L 162.50,91.00 L 162.50,90.00 L 162.50,89.00 L 162.50,88.00 L 162.50,87.00 L 162.50,86.00 L 162.50,85.00 L 162.50,84.00 L 162.50,83.00 L 162.50,82.00 L 162.50,81.00 L 162.50,80.00 L 162.50,79.00 L 162.50,78.00 L 163.00,77.50 L 163.50,78.00 L 163.50,79.00 L 163.50,80.00 L 163.50,81.00 L 163.50,82.00 L 163.50,83.00 L 163.50,84.00 L 163.50,85.00 L 163.50,86.00 L 163.50,87.00 L 163.50,88.00 L 163.50,89.00 L 163.50,90.00 L 163.50,91.00 L 163.00,91.50 Z" fill="white" stroke="none" /><path d="M 168.00,91.50 L 167.50,91.00 L 167.50,90.00 L 167.50,89.00 L 167.50,88.00 L 167.50,87.00 L 167.50,86.00 L 167.50,85.00 L 167.50,84.00 L 167.50,83.00 L 167.50,82.00 L 167.50,81.00 L 167.50,80.00 L 167.50,79.00 L 167.50,78.00 L 168.00,77.50 L 169.00,77.50 L 170.00,77.50 L 171.00,77.50 L 172.00,77.50 L 173.00,77.50 L 174.00,77.50 L 175.00,77.50 L 176.00,77.50 L 176.50,78.00 L 177.00,78.50 L 178.00,78.50 L 178.50,79.00 L 178.50,80.00 L 178.50,81.00 L 179.00,81.50 L 179.50,82.00 L 179.00,82.50 L 178.50,83.00 L 178.50,84.00 L 178.00,84.50 L 177.50,85.00 L 177.00,85.50 L 176.00,85.50 L 175.50,86.00 L 176.00,86.50 L 176.50,87.00 L 176.50,88.00 L 176.00,88.50 L 175.50,88.00 L 175.00,87.50 L 174.50,87.00 L 174.00,86.50 L 173.00,86.50 L 172.00,86.50 L 171.00,86.50 L 170.00,86.50 L 169.00,86.50 L 168.50,87.00 L 168.50,88.00 L 168.50,89.00 L 168.50,90.00 L 168.50,91.00 L 168.00,91.50 Z" fill="white" stroke="none" /><path d="M 192.00,91.50 L 191.00,91.50 L 190.00,91.50 L 189.00,91.50 L 188.00,91.50 L 187.00,91.50 L 186.00,91.50 L 185.00,91.50 L 184.00,91.50 L 183.00,91.50 L 182.50,91.00 L 182.50,90.00 L 182.50,89.00 L 182.50,88.00 L 182.50,87.00 L 182.50,86.00 L 182.50,85.00 L 182.50,84.00 L 182.50,83.00 L 182.50,82.00 L 182.50,81.00 L 182.50,80.00 L 182.50,79.00 L 182.50,78.00 L 183.00,77.50 L 184.00,77.50 L 185.00,77.50 L 186.00,77.50 L 187.00,77.50 L 188.00,77.50 L 189.00,77.50 L 190.00,77.50 L 191.00,77.50 L 192.00,77.50 L 192.50,78.00 L 192.00,78.50 L 191.00,78.50 L 190.00,78.50 L 189.00,78.50 L 188.00,78.50 L 187.00,78.50 L 186.00,78.50 L 185.00,78.50 L 184.00,78.50 L 183.50,79.00 L 183.50,80.00 L 183.50,81.00 L 183.50,82.00 L 183.50,83.00 L 184.00,83.50 L 185.00,83.50 L 186.00,83.50 L 187.00,83.50 L 188.00,83.50 L 189.00,83.50 L 190.00,83.50 L 191.00,83.50 L 191.50,84.00 L 191.50,85.00 L 191.00,85.50 L 190.00,85.50 L 189.00,85.50 L 188.00,85.50 L 187.00,85.50 L 186.00,85.50 L 185.00,85.50 L 184.00,85.50 L 183.50,86.00 L 183.50,87.00 L 183.50,88.00 L 183.50,89.00 L 183.50,90.00 L 184.00,90.50 L 185.00,90.50 L 186.00,90.50 L 187.00,90.50 L 188.00,90.50 L 189.00,90.50 L 190.00,90.50 L 191.00,90.50 L 192.00,90.50 L 192.50,91.00 L 192.00,91.50 Z" fill="white" stroke="none" /><path d="M 196.00,91.50 L 195.50,91.00 L 195.50,90.00 L 195.50,89.00 L 195.50,88.00 L 195.50,87.00 L 195.50,86.00 L 195.50,85.00 L 195.50,84.00 L 195.50,83.00 L 195.50,82.00 L 195.50,81.00 L 195.50,80.00 L 195.50,79.00 L 195.50,78.00 L 196.00,77.50 L 197.00,77.50 L 198.00,77.50 L 199.00,77.50 L 200.00,77.50 L 201.00,77.50 L 202.00,77.50 L 203.00,77.50 L 204.00,77.50 L 204.50,78.00 L 205.00,78.50 L 206.00,78.50 L 206.50,79.00 L 206.50,80.00 L 206.50,81.00 L 207.00,81.50 L 207.50,82.00 L 207.00,82.50 L 206.50,83.00 L 206.50,84.00 L 206.00,84.50 L 205.50,85.00 L 205.00,85.50 L 204.00,85.50 L 203.50,86.00 L 204.00,86.50 L 204.50,87.00 L 204.50,88.00 L 204.00,88.50 L 203.50,88.00 L 203.00,87.50 L 202.50,87.00 L 202.00,86.50 L 201.00,86.50 L 200.00,86.50 L 199.00,86.50 L 198.00,86.50 L 197.00,86.50 L 196.50,87.00 L 196.50,88.00 L 196.50,89.00 L 196.50,90.00 L 196.50,91.00 L 196.00,91.50 Z" fill="white" stroke="none" /><path d="M 143.00,85.50 L 142.00,85.50 L 141.00,85.50 L 140.00,85.50 L 139.50,85.00 L 139.00,84.50 L 138.00,84.50 L 137.00,84.50 L 136.50,84.00 L 136.00,83.50 L 135.50,83.00 L 136.00,82.50 L 137.00,82.50 L 137.50,83.00 L 138.00,83.50 L 139.00,83.50 L 140.00,83.50 L 140.50,84.00 L 141.00,84.50 L 142.00,84.50 L 143.00,84.50 L 143.50,85.00 L 143.00,85.50 Z" fill="white" stroke="none" /><path d="M 143.00,91.50 L 142.00,91.50 L 141.00,91.50 L 140.00,91.50 L 139.00,91.50 L 138.00,91.50 L 137.00,91.50 L 136.50,91.00 L 136.00,90.50 L 135.00,90.50 L 134.50,90.00 L 134.50,89.00 L 134.50,88.00 L 135.00,87.50 L 135.50,88.00 L 135.50,89.00 L 136.00,89.50 L 137.00,89.50 L 137.50,90.00 L 138.00,90.50 L 139.00,90.50 L 140.00,90.50 L 141.00,90.50 L 142.00,90.50 L 142.50,90.00 L 143.00,89.50 L 144.00,89.50 L 144.50,90.00 L 144.00,90.50 L 143.50,91.00 L 143.00,91.50 Z" fill="white" stroke="none" /><path d="M 121.00,121.50 L 120.00,121.50 L 119.00,121.50 L 118.50,121.00 L 118.50,120.00 L 118.50,119.00 L 118.50,118.00 L 118.50,117.00 L 118.50,116.00 L 118.50,115.00 L 118.50,114.00 L 118.50,113.00 L 118.50,112.00 L 118.50,111.00 L 118.50,110.00 L 118.50,109.00 L 118.50,108.00 L 118.50,107.00 L 118.50,106.00 L 118.50,105.00 L 118.50,104.00 L 118.50,103.00 L 118.50,102.00 L 118.50,101.00 L 118.50,100.00 L 118.50,99.00 L 118.50,98.00 L 118.50,97.00 L 118.50,96.00 L 118.50,95.00 L 119.00,94.50 L 120.00,94.50 L 121.00,94.50 L 122.00,94.50 L 123.00,94.50 L 124.00,94.50 L 125.00,94.50 L 126.00,94.50 L 127.00,94.50 L 128.00,94.50 L 129.00,94.50 L 130.00,94.50 L 131.00,94.50 L 132.00,94.50 L 133.00,94.50 L 134.00,94.50 L 135.00,94.50 L 136.00,94.50 L 137.00,94.50 L 138.00,94.50 L 138.50,95.00 L 138.50,96.00 L 138.50,97.00 L 138.00,97.50 L 137.00,97.50 L 136.00,97.50 L 135.00,97.50 L 134.00,97.50 L 133.00,97.50 L 132.00,97.50 L 131.00,97.50 L 130.00,97.50 L 129.00,97.50 L 128.00,97.50 L 127.00,97.50 L 126.00,97.50 L 125.00,97.50 L 124.00,97.50 L 123.00,97.50 L 122.00,97.50 L 121.50,98.00 L 121.50,99.00 L 121.50,100.00 L 121.50,101.00 L 121.50,102.00 L 121.50,103.00 L 121.50,104.00 L 121.50,105.00 L 121.50,106.00 L 121.50,107.00 L 122.00,107.50 L 123.00,107.50 L 124.00,107.50 L 125.00,107.50 L 126.00,107.50 L 127.00,107.50 L 128.00,107.50 L 129.00,107.50 L 130.00,107.50 L 131.00,107.50 L 132.00,107.50 L 133.00,107.50 L 134.00,107.50 L 135.00,107.50 L 136.00,107.50 L 136.50,108.00 L 136.50,109.00 L 136.00,109.50 L 135.00,109.50 L 134.00,109.50 L 133.00,109.50 L 132.00,109.50 L 131.00,109.50 L 130.00,109.50 L 129.00,109.50 L 128.00,109.50 L 127.00,109.50 L 126.00,109.50 L 125.00,109.50 L 124.00,109.50 L 123.00,109.50 L 122.00,109.50 L 121.50,110.00 L 121.50,111.00 L 121.50,112.00 L 121.50,113.00 L 121.50,114.00 L 121.50,115.00 L 121.50,116.00 L 121.50,117.00 L 121.50,118.00 L 121.50,119.00 L 121.50,120.00 L 121.50,121.00 L 121.00,121.50 Z" fill="white" stroke="none" /><path d="M 145.00,121.50 L 144.00,121.50 L 143.50,121.00 L 143.50,120.00 L 143.50,119.00 L 143.50,118.00 L 143.50,117.00 L 143.50,116.00 L 143.50,115.00 L 143.50,114.00 L 143.50,113.00 L 143.50,112.00 L 143.50,111.00 L 143.50,110.00 L 143.50,109.00 L 143.50,108.00 L 143.50,107.00 L 143.50,106.00 L 143.50,105.00 L 143.50,104.00 L 143.50,103.00 L 143.50,102.00 L 143.50,101.00 L 143.50,100.00 L 143.50,99.00 L 143.50,98.00 L 143.50,97.00 L 143.50,96.00 L 143.50,95.00 L 144.00,94.50 L 145.00,94.50 L 145.50,95.00 L 145.50,96.00 L 145.50,97.00 L 145.50,98.00 L 145.50,99.00 L 145.50,100.00 L 145.50,101.00 L 145.50,102.00 L 145.50,103.00 L 145.50,104.00 L 145.50,105.00 L 145.50,106.00 L 145.50,107.00 L 145.50,108.00 L 145.50,109.00 L 145.50,110.00 L 145.50,111.00 L 145.50,112.00 L 145.50,113.00 L 145.50,114.00 L 145.50,115.00 L 145.50,116.00 L 145.50,117.00 L 145.50,118.00 L 145.50,119.00 L 145.50,120.00 L 145.50,121.00 L 145.00,121.50 Z" fill="white" stroke="none" /><path d="M 175.00,121.50 L 174.00,121.50 L 173.00,121.50 L 172.00,121.50 L 171.50,121.00 L 171.50,120.00 L 171.00,119.50 L 170.50,119.00 L 170.00,118.50 L 169.50,118.00 L 169.50,117.00 L 169.00,116.50 L 168.50,116.00 L 168.50,115.00 L 168.00,114.50 L 167.50,114.00 L 167.00,113.50 L 166.50,113.00 L 166.50,112.00 L 166.00,111.50 L 165.00,111.50 L 164.00,111.50 L 163.00,111.50 L 162.00,111.50 L 161.00,111.50 L 160.00,111.50 L 159.00,111.50 L 158.00,111.50 L 157.00,111.50 L 156.00,111.50 L 155.50,112.00 L 155.50,113.00 L 155.50,114.00 L 155.50,115.00 L 155.50,116.00 L 155.50,117.00 L 155.50,118.00 L 155.50,119.00 L 155.50,120.00 L 155.50,121.00 L 155.00,121.50 L 154.00,121.50 L 153.50,121.00 L 153.50,120.00 L 153.50,119.00 L 153.50,118.00 L 153.50,117.00 L 153.50,116.00 L 153.50,115.00 L 153.50,114.00 L 153.50,113.00 L 153.50,112.00 L 153.50,111.00 L 153.50,110.00 L 153.50,109.00 L 153.50,108.00 L 153.50,107.00 L 153.50,106.00 L 153.50,105.00 L 153.50,104.00 L 153.50,103.00 L 153.50,102.00 L 153.50,101.00 L 153.50,100.00 L 153.50,99.00 L 153.50,98.00 L 153.50,97.00 L 153.50,96.00 L 153.50,95.00 L 154.00,94.50 L 155.00,94.50 L 156.00,94.50 L 157.00,94.50 L 158.00,94.50 L 159.00,94.50 L 160.00,94.50 L 161.00,94.50 L 162.00,94.50 L 163.00,94.50 L 164.00,94.50 L 165.00,94.50 L 166.00,94.50 L 167.00,94.50 L 168.00,94.50 L 169.00,94.50 L 169.50,95.00 L 170.00,95.50 L 171.00,95.50 L 171.50,96.00 L 172.00,96.50 L 172.50,97.00 L 173.00,97.50 L 173.50,98.00 L 174.00,98.50 L 174.50,99.00 L 174.50,100.00 L 174.50,101.00 L 175.00,101.50 L 175.50,102.00 L 175.50,103.00 L 175.50,104.00 L 175.00,104.50 L 174.50,105.00 L 174.50,106.00 L 174.50,107.00 L 174.00,107.50 L 173.50,108.00 L 173.00,108.50 L 172.50,109.00 L 172.00,109.50 L 171.00,109.50 L 170.50,110.00 L 170.00,110.50 L 169.00,110.50 L 168.50,111.00 L 169.00,111.50 L 169.50,112.00 L 169.50,113.00 L 170.00,113.50 L 170.50,114.00 L 171.00,114.50 L 171.50,115.00 L 171.50,116.00 L 172.00,116.50 L 172.50,117.00 L 173.00,117.50 L 173.50,118.00 L 173.50,119.00 L 174.00,119.50 L 174.50,120.00 L 175.00,120.50 L 175.50,121.00 L 175.00,121.50 Z" fill="white" stroke="none" /><path d="M 207.00,121.50 L 206.00,121.50 L 205.00,121.50 L 204.50,121.00 L 204.50,120.00 L 204.50,119.00 L 204.50,118.00 L 204.50,117.00 L 204.50,116.00 L 204.50,115.00 L 204.50,114.00 L 204.50,113.00 L 204.50,112.00 L 204.50,111.00 L 204.50,110.00 L 204.50,109.00 L 204.50,108.00 L 204.50,107.00 L 204.50,106.00 L 204.50,105.00 L 204.50,104.00 L 204.50,103.00 L 204.50,102.00 L 204.50,101.00 L 204.50,100.00 L 204.00,99.50 L 203.50,100.00 L 203.00,100.50 L 202.50,101.00 L 202.00,101.50 L 201.50,102.00 L 201.50,103.00 L 201.00,103.50 L 200.50,104.00 L 200.00,104.50 L 199.50,105.00 L 199.00,105.50 L 198.50,106.00 L 198.50,107.00 L 198.00,107.50 L 197.50,108.00 L 197.00,108.50 L 196.50,109.00 L 196.00,109.50 L 195.50,110.00 L 195.00,110.50 L 194.50,111.00 L 194.00,111.50 L 193.50,111.00 L 193.00,110.50 L 192.50,110.00 L 192.00,109.50 L 191.50,109.00 L 191.50,108.00 L 191.00,107.50 L 190.50,107.00 L 190.00,106.50 L 189.50,106.00 L 189.00,105.50 L 188.50,105.00 L 188.00,104.50 L 187.50,104.00 L 187.50,103.00 L 187.00,102.50 L 186.50,102.00 L 186.00,101.50 L 185.50,101.00 L 185.00,100.50 L 184.50,100.00 L 184.00,99.50 L 183.50,100.00 L 183.50,101.00 L 183.50,102.00 L 183.50,103.00 L 183.50,104.00 L 183.50,105.00 L 183.50,106.00 L 183.50,107.00 L 183.50,108.00 L 183.50,109.00 L 183.50,110.00 L 183.50,111.00 L 183.50,112.00 L 183.50,113.00 L 183.50,114.00 L 183.50,115.00 L 183.50,116.00 L 183.50,117.00 L 183.50,118.00 L 183.50,119.00 L 183.50,120.00 L 183.50,121.00 L 183.00,121.50 L 182.00,121.50 L 181.00,121.50 L 180.50,121.00 L 180.50,120.00 L 180.50,119.00 L 180.50,118.00 L 180.50,117.00 L 180.50,116.00 L 180.50,115.00 L 180.50,114.00 L 180.50,113.00 L 180.50,112.00 L 180.50,111.00 L 180.50,110.00 L 180.50,109.00 L 180.50,108.00 L 180.50,107.00 L 180.50,106.00 L 180.50,105.00 L 180.50,104.00 L 180.50,103.00 L 180.50,102.00 L 180.50,101.00 L 180.50,100.00 L 180.50,99.00 L 180.50,98.00 L 180.50,97.00 L 180.50,96.00 L 180.50,95.00 L 181.00,94.50 L 182.00,94.50 L 183.00,94.50 L 184.00,94.50 L 184.50,95.00 L 185.00,95.50 L 185.50,96.00 L 186.00,96.50 L 186.50,97.00 L 186.50,98.00 L 187.00,98.50 L 187.50,99.00 L 188.00,99.50 L 188.50,100.00 L 189.00,100.50 L 189.50,101.00 L 189.50,102.00 L 190.00,102.50 L 190.50,103.00 L 191.00,103.50 L 191.50,104.00 L 192.00,104.50 L 192.50,105.00 L 192.50,106.00 L 193.00,106.50 L 193.50,107.00 L 194.00,107.50 L 194.50,107.00 L 195.00,106.50 L 195.50,106.00 L 196.00,105.50 L 196.50,105.00 L 196.50,104.00 L 197.00,103.50 L 197.50,103.00 L 198.00,102.50 L 198.50,102.00 L 199.00,101.50 L 199.50,101.00 L 199.50,100.00 L 200.00,99.50 L 200.50,99.00 L 201.00,98.50 L 201.50,98.00 L 202.00,97.50 L 202.50,97.00 L 202.50,96.00 L 203.00,95.50 L 203.50,95.00 L 204.00,94.50 L 205.00,94.50 L 206.00,94.50 L 207.00,94.50 L 207.50,95.00 L 207.50,96.00 L 207.50,97.00 L 207.50,98.00 L 207.50,99.00 L 207.50,100.00 L 207.50,101.00 L 207.50,102.00 L 207.50,103.00 L 207.50,104.00 L 207.50,105.00 L 207.50,106.00 L 207.50,107.00 L 207.50,108.00 L 207.50,109.00 L 207.50,110.00 L 207.50,111.00 L 207.50,112.00 L 207.50,113.00 L 207.50,114.00 L 207.50,115.00 L 207.50,116.00 L 207.50,117.00 L 207.50,118.00 L 207.50,119.00 L 207.50,120.00 L 207.50,121.00 L 207.00,121.50 Z" fill="white" stroke="none" /><path d="M 112.00,123.50 L 111.50,123.00 L 111.00,122.50 L 110.00,122.50 L 109.00,122.50 L 108.00,122.50 L 107.00,122.50 L 106.50,122.00 L 106.00,121.50 L 105.50,121.00 L 105.00,120.50 L 104.50,120.00 L 104.50,119.00 L 104.00,118.50 L 103.50,118.00 L 103.50,117.00 L 103.00,116.50 L 102.50,116.00 L 102.00,115.50 L 101.50,115.00 L 101.50,114.00 L 101.00,113.50 L 100.50,113.00 L 100.50,112.00 L 100.00,111.50 L 99.50,111.00 L 99.00,110.50 L 98.50,110.00 L 98.50,109.00 L 99.00,108.50 L 100.00,108.50 L 101.00,108.50 L 102.00,108.50 L 102.50,108.00 L 103.00,107.50 L 103.50,108.00 L 104.00,108.50 L 104.50,109.00 L 104.50,110.00 L 105.00,110.50 L 105.50,111.00 L 106.00,111.50 L 106.50,112.00 L 106.50,113.00 L 107.00,113.50 L 107.50,114.00 L 107.50,115.00 L 108.00,115.50 L 108.50,116.00 L 109.00,116.50 L 109.50,117.00 L 109.50,118.00 L 110.00,118.50 L 110.50,119.00 L 110.50,120.00 L 111.00,120.50 L 111.50,121.00 L 112.00,121.50 L 112.50,122.00 L 112.50,123.00 L 112.00,123.50 Z" fill="white" stroke="none" /><path d="M 97.00,122.50 L 96.00,122.50 L 95.00,122.50 L 94.00,122.50 L 93.00,122.50 L 92.00,122.50 L 91.50,122.00 L 91.50,121.00 L 91.00,120.50 L 90.50,120.00 L 90.00,119.50 L 89.50,119.00 L 89.50,118.00 L 89.00,117.50 L 88.50,117.00 L 88.50,116.00 L 88.00,115.50 L 87.50,115.00 L 87.00,114.50 L 86.50,114.00 L 86.50,113.00 L 86.00,112.50 L 85.50,112.00 L 86.00,111.50 L 86.50,111.00 L 87.00,110.50 L 88.00,110.50 L 89.00,110.50 L 89.50,110.00 L 90.00,109.50 L 90.50,110.00 L 91.00,110.50 L 91.50,111.00 L 91.50,112.00 L 92.00,112.50 L 92.50,113.00 L 92.50,114.00 L 93.00,114.50 L 93.50,115.00 L 94.00,115.50 L 94.50,116.00 L 94.50,117.00 L 95.00,117.50 L 95.50,118.00 L 95.50,119.00 L 96.00,119.50 L 96.50,120.00 L 97.00,120.50 L 97.50,121.00 L 97.50,122.00 L 97.00,122.50 Z" fill="white" stroke="none" /><path d="M 83.00,122.50 L 82.00,122.50 L 81.00,122.50 L 80.00,122.50 L 79.00,122.50 L 78.00,122.50 L 77.50,122.00 L 77.00,121.50 L 76.50,121.00 L 76.00,120.50 L 75.50,120.00 L 75.50,119.00 L 75.50,118.00 L 76.00,117.50 L 77.00,117.50 L 77.50,117.00 L 78.00,116.50 L 78.50,116.00 L 79.00,115.50 L 79.50,116.00 L 79.50,117.00 L 80.00,117.50 L 80.50,118.00 L 81.00,118.50 L 81.50,119.00 L 81.50,120.00 L 82.00,120.50 L 82.50,121.00 L 83.00,121.50 L 83.50,122.00 L 83.00,122.50 Z" fill="white" stroke="none" /></svg>